<svg width="20" height="20" viewBox="0 0 20 20" fill="none" xmlns="http://www.w3.org/2000/svg">
<path d="M13.9582 2.96663V1.66663C13.9582 1.32496 13.6749 1.04163 13.3332 1.04163C12.9915 1.04163 12.7082 1.32496 12.7082 1.66663V2.91663H7.29153V1.66663C7.29153 1.32496 7.0082 1.04163 6.66653 1.04163C6.32487 1.04163 6.04153 1.32496 6.04153 1.66663V2.96663C3.79153 3.17496 2.69987 4.51663 2.5332 6.50829C2.51653 6.74996 2.71653 6.94996 2.94987 6.94996H17.0499C17.2915 6.94996 17.4915 6.74163 17.4665 6.50829C17.2999 4.51663 16.2082 3.17496 13.9582 2.96663Z" fill="#304D30"/>
<path d="M16.6667 8.19995H3.33333C2.875 8.19995 2.5 8.57495 2.5 9.03328V14.1666C2.5 16.6666 3.75 18.3333 6.66667 18.3333H10.775C11.35 18.3333 11.75 17.775 11.5667 17.2333C11.4 16.75 11.2583 16.2166 11.2583 15.8333C11.2583 13.3083 13.3167 11.25 15.8417 11.25C16.0833 11.25 16.325 11.2666 16.5583 11.3083C17.0583 11.3833 17.5083 10.9916 17.5083 10.4916V9.04162C17.5 8.57495 17.125 8.19995 16.6667 8.19995ZM7.675 14.7583C7.59167 14.8333 7.5 14.8916 7.4 14.9333C7.3 14.975 7.19167 15 7.08333 15C6.975 15 6.86667 14.975 6.76667 14.9333C6.66667 14.8916 6.575 14.8333 6.49167 14.7583C6.34167 14.6 6.25 14.3833 6.25 14.1666C6.25 14.1166 6.25833 14.0583 6.26667 14.0083C6.275 13.95 6.29167 13.9 6.31667 13.85C6.33333 13.8 6.35833 13.75 6.39167 13.7C6.41667 13.6583 6.45833 13.6166 6.49167 13.575C6.575 13.5 6.66667 13.4416 6.76667 13.4C6.96667 13.3166 7.2 13.3166 7.4 13.4C7.5 13.4416 7.59167 13.5 7.675 13.575C7.70833 13.6166 7.75 13.6583 7.775 13.7C7.80833 13.75 7.83333 13.8 7.85 13.85C7.875 13.9 7.89167 13.95 7.9 14.0083C7.90833 14.0583 7.91667 14.1166 7.91667 14.1666C7.91667 14.3833 7.825 14.6 7.675 14.7583ZM7.675 11.8416C7.59167 11.9166 7.5 11.975 7.4 12.0166C7.3 12.0583 7.19167 12.0833 7.08333 12.0833C6.975 12.0833 6.86667 12.0583 6.76667 12.0166C6.65833 11.975 6.575 11.9166 6.49167 11.8416C6.34167 11.6833 6.25 11.4666 6.25 11.25C6.25 11.0333 6.34167 10.8166 6.49167 10.6583C6.575 10.5833 6.66667 10.525 6.76667 10.4833C6.96667 10.4 7.2 10.4 7.4 10.4833C7.5 10.525 7.59167 10.5833 7.675 10.6583C7.70833 10.7 7.75 10.7416 7.775 10.7833C7.80833 10.8333 7.83333 10.8833 7.85 10.9333C7.875 10.9833 7.89167 11.0333 7.9 11.0833C7.90833 11.1416 7.91667 11.2 7.91667 11.25C7.91667 11.4666 7.825 11.6833 7.675 11.8416ZM10.5917 11.8416C10.4333 11.9916 10.225 12.0833 10 12.0833C9.89167 12.0833 9.78333 12.0583 9.68333 12.0166C9.575 11.975 9.49167 11.9166 9.40833 11.8416C9.25833 11.6833 9.16667 11.4666 9.16667 11.25C9.16667 11.2 9.175 11.1416 9.18333 11.0833C9.19167 11.0333 9.20833 10.9833 9.23333 10.9333C9.25 10.8833 9.275 10.8333 9.30833 10.7833C9.34167 10.7416 9.375 10.7 9.40833 10.6583C9.71667 10.35 10.275 10.35 10.5917 10.6583C10.625 10.7 10.6583 10.7416 10.6917 10.7833C10.725 10.8333 10.75 10.8833 10.7667 10.9333C10.7917 10.9833 10.8083 11.0333 10.8167 11.0833C10.825 11.1416 10.8333 11.2 10.8333 11.25C10.8333 11.4666 10.7417 11.6833 10.5917 11.8416Z" fill="#304D30"/>
<path d="M18.1917 13.475C16.8917 12.175 14.775 12.175 13.475 13.475C12.175 14.775 12.175 16.8917 13.475 18.1917C14.775 19.4917 16.8917 19.4917 18.1917 18.1917C19.4917 16.8917 19.4917 14.775 18.1917 13.475ZM17.5583 16.3C17.45 16.4167 17.2917 16.4833 17.1167 16.4833H16.5V17.1333C16.5 17.3083 16.4333 17.4583 16.3167 17.575C16.2 17.6917 16.05 17.7583 15.875 17.7583C15.5333 17.7583 15.25 17.475 15.25 17.1333V16.4833H14.625C14.2833 16.4833 14 16.2083 14 15.8583C14 15.5167 14.2833 15.2333 14.625 15.2333H15.25V14.6417C15.25 14.3 15.525 14.0167 15.875 14.0167C16.2167 14.0167 16.5 14.3 16.5 14.6417V15.2333H17.1167C17.4667 15.2333 17.7417 15.5167 17.7417 15.8583C17.7417 16.0333 17.675 16.1917 17.5583 16.3Z" fill="#304D30"/>
</svg>
