<svg width="72" height="72" viewBox="0 0 72 72" fill="none" xmlns="http://www.w3.org/2000/svg">
<path d="M62.91 3H54.09C51.48 3 49.56 4.08 48.69 6C48.21 6.87 48 7.89 48 9.09V17.91C48 21.72 50.28 24 54.09 24H62.91C64.11 24 65.13 23.79 66 23.31C67.92 22.44 69 20.52 69 17.91V9.09C69 5.28 66.72 3 62.91 3ZM65.73 14.79C65.43 15.09 64.98 15.3 64.5 15.33H60.27V16.86L60.3 19.5C60.27 20.01 60.09 20.43 59.73 20.79C59.43 21.09 58.98 21.3 58.5 21.3C57.51 21.3 56.7 20.49 56.7 19.5V15.3L52.5 15.33C51.51 15.33 50.7 14.49 50.7 13.5C50.7 12.51 51.51 11.7 52.5 11.7L55.14 11.73H56.7V7.53C56.7 6.54 57.51 5.7 58.5 5.7C59.49 5.7 60.3 6.54 60.3 7.53L60.27 9.66V11.7H64.5C65.49 11.7 66.3 12.51 66.3 13.5C66.27 14.01 66.06 14.43 65.73 14.79Z" fill="#8BA38B"/>
<path d="M26.9999 31.14C30.9432 31.14 34.1399 27.9433 34.1399 24C34.1399 20.0567 30.9432 16.86 26.9999 16.86C23.0565 16.86 19.8599 20.0567 19.8599 24C19.8599 27.9433 23.0565 31.14 26.9999 31.14Z" fill="#8BA38B"/>
<path d="M62.91 24H61.5V37.83L61.11 37.5C58.77 35.49 54.99 35.49 52.65 37.5L40.17 48.21C37.83 50.22 34.05 50.22 31.71 48.21L30.69 47.37C28.56 45.51 25.17 45.33 22.77 46.95L11.55 54.48C10.89 52.8 10.5 50.85 10.5 48.57V23.43C10.5 14.97 14.97 10.5 23.43 10.5H48V9.09C48 7.89 48.21 6.87 48.69 6H23.43C12.51 6 6 12.51 6 23.43V48.57C6 51.84 6.57 54.69 7.68 57.09C10.26 62.79 15.78 66 23.43 66H48.57C59.49 66 66 59.49 66 48.57V23.31C65.13 23.79 64.11 24 62.91 24Z" fill="#8BA38B"/>
</svg>
