<?xml version="1.0" encoding="UTF-8"?>
<svg id="Layer_2" data-name="Layer 2" xmlns="http://www.w3.org/2000/svg" viewBox="0 0 548.67 482.54">
  <defs>
    <style>
      .cls-1 {
        fill: #fff;
      }
    </style>
  </defs>
  <g id="Layer_1-2" data-name="Layer 1">
    <path class="cls-1" d="M274.56,482.24c-85.66,.01-171.32,.06-256.98-.12-5.6,0-12.33,2.45-16.28-4.47-3.82-6.72,1.7-11.03,4.38-15.72,62.08-108.61,124.31-217.14,186.53-325.68,24.68-43.03,49.44-86.01,74.17-129.02,5.54-9.62,11.11-9.69,16.73,.1,47.75,83.07,95.46,166.18,143.14,249.31,39.74,69.26,79.16,138.72,119.44,207.66,6.6,11.29,1.85,18.18-10.53,18.13-86.86-.36-173.74-.19-260.6-.19m132.21-33.87v-.03c25.74,0,51.5,.01,77.25-.01,8.07-.01,8.17-.24,4.1-7.36-69.26-120.98-138.57-241.95-207.72-363.01-6.65-11.63-6.2-8.63-11.27,.22-69.23,120.74-138.37,241.51-207.55,362.28-4.16,7.27-3.85,7.86,4.47,7.87,47.66,.03,95.32-.06,142.96,.1,10.39,.03,20.64-1.26,30.91-2.35,8.12-.86,11.78-5.06,12.37-13.26,.9-12.49-5.88-23.17-17.97-27.72-7.05-2.66-14.13-4.65-21.32,.27-16.76,11.47-36.42,11.64-52.14,.74-16.02-11.1-23.38-30.02-19.09-49.07,4.12-18.36,19.32-32.29,38.99-35.07,4.43-.62,6.78-2.67,8.89-6.19,15.94-26.55,31.92-53.1,48.06-79.54,2.15-3.52,2.5-6.23,.27-9.92-5.81-9.53-7.21-19.76-4.34-30.75,4.69-17.98,15.94-29.26,33.84-32.86,16.61-3.34,30.59,2.63,40.58,16.21,10.57,14.36,12.99,30.17,4.08,46.37-2.47,4.5-2.3,7.66,.28,11.87,15.66,25.59,31.16,51.29,46.49,77.09,2.79,4.69,5.91,7.08,11.57,8.13,20.21,3.78,32.87,16.22,37.56,36.47,3.94,17.01-3.8,36.17-18.49,46.63-15.57,11.1-35.09,11.48-51.63,1.01-9.43-5.96-19.74-5.09-29.98,2.57-8.75,6.54-12.76,17.59-9.87,27.71,1.53,5.33,4.64,8.77,10.64,9.24,10.53,.84,20.98,2.53,31.63,2.43,22.13-.23,44.28-.08,66.43-.08m-65.96-131.28c-.32-1.35-.68-3.75-1.45-6.01-6.4-18.73-16.13-35.69-27.52-51.7-3.65-5.14-8.3-9.36-13.6-12.86-3.03-2.02-5.86-2.61-9.44-1.34-7.37,2.61-15.39,4.28-22.63,1.23-11.74-4.92-18.93,1.29-25.28,9.16-13.9,17.26-24.27,36.62-31.42,57.68-2.03,5.97-1.41,12.34,3.44,16.06,15.56,11.86,19.49,28.75,21.21,46.68,.59,6.24,2.79,11.02,7.76,14.82,13.99,10.67,22.99,24.52,25.74,42.24,.66,4.25,2.06,8.53,7.21,8.5,5.16-.01,6.45-4.35,7.16-8.58,2.86-17.3,11.18-31.25,25.15-41.76,5.54-4.15,8.26-9.58,8.76-16.67,1.21-17.37,5.33-33.5,20.4-44.57,3.8-2.79,4.38-7.34,4.52-12.87m21.86,15.48c-17.24,.09-34.2,18.48-34.41,37.34-.19,17.57,16.57,33.41,35.18,33.23,19.19-.18,34.72-16.06,34.66-35.4-.06-19.86-15.59-35.27-35.43-35.17m-210.93,35.24c0,19.53,15.56,35.4,34.64,35.35,18.55-.04,35.17-16.03,35.08-33.73-.09-18.19-17.84-36.84-35.08-36.84-19.35-.01-34.63,15.53-34.64,35.22m154.2-162.79c.09-17.44-14.46-32.53-31.23-32.34-16.75,.18-30.95,14.48-31.42,31.65-.48,16.61,15.08,32.62,31.48,32.42,16.96-.18,31.07-14.57,31.16-31.73"/>
  </g>
</svg>