<svg width="20" height="20" viewBox="0 0 20 20" fill="none" xmlns="http://www.w3.org/2000/svg">
<path d="M15.4248 6.875C15.8415 6.875 16.1748 6.54167 16.1748 6.125V2.25C16.1748 1.83333 15.8415 1.5 15.4248 1.5C15.0081 1.5 14.6748 1.83333 14.6748 2.25V6.125C14.6748 6.53333 15.0165 6.875 15.4248 6.875Z" fill="#02060C"/>
<path d="M10 13.125C9.58333 13.125 9.25 13.4583 9.25 13.875V17.75C9.25 18.1667 9.58333 18.5 10 18.5C10.4167 18.5 10.75 18.1667 10.75 17.75V13.875C10.75 13.4667 10.4167 13.125 10 13.125Z" fill="#02060C"/>
<path d="M4.57519 6.875C4.99186 6.875 5.3252 6.54167 5.3252 6.125V2.25C5.3252 1.83333 4.99186 1.5 4.57519 1.5C4.15853 1.5 3.8252 1.83333 3.8252 2.25V6.125C3.8252 6.53333 4.15853 6.875 4.57519 6.875Z" fill="#02060C"/>
<path d="M6.1249 8.47498H3.0249C2.60824 8.47498 2.2749 8.80831 2.2749 9.22498C2.2749 9.64164 2.60824 9.97498 3.0249 9.97498H3.8249V17.75C3.8249 18.1666 4.15824 18.5 4.5749 18.5C4.99157 18.5 5.3249 18.1666 5.3249 17.75V9.97498H6.1249C6.54157 9.97498 6.8749 9.64164 6.8749 9.22498C6.8749 8.80831 6.53324 8.47498 6.1249 8.47498Z" fill="#02060C"/>
<path d="M16.975 8.47498H13.875C13.4583 8.47498 13.125 8.80831 13.125 9.22498C13.125 9.64164 13.4583 9.97498 13.875 9.97498H14.675V17.75C14.675 18.1666 15.0083 18.5 15.425 18.5C15.8417 18.5 16.175 18.1666 16.175 17.75V9.97498H16.975C17.3917 9.97498 17.725 9.64164 17.725 9.22498C17.725 8.80831 17.3917 8.47498 16.975 8.47498Z" fill="#02060C"/>
<path d="M11.5502 10.025H10.7502V2.25C10.7502 1.83333 10.4169 1.5 10.0002 1.5C9.58353 1.5 9.2502 1.83333 9.2502 2.25V10.025H8.4502C8.03353 10.025 7.7002 10.3583 7.7002 10.775C7.7002 11.1917 8.03353 11.525 8.4502 11.525H11.5502C11.9669 11.525 12.3002 11.1917 12.3002 10.775C12.3002 10.3583 11.9669 10.025 11.5502 10.025Z" fill="#02060C"/>
</svg>
