<svg width="80" height="80" viewBox="0 0 80 80" fill="none" xmlns="http://www.w3.org/2000/svg">
<path d="M39.9998 75.8332C20.2332 75.8332 4.1665 59.7665 4.1665 39.9998C4.1665 20.2332 20.2332 4.1665 39.9998 4.1665C59.7665 4.1665 75.8332 20.2332 75.8332 39.9998C75.8332 59.7665 59.7665 75.8332 39.9998 75.8332ZM39.9998 9.1665C22.9998 9.1665 9.1665 22.9998 9.1665 39.9998C9.1665 56.9998 22.9998 70.8332 39.9998 70.8332C56.9998 70.8332 70.8332 56.9998 70.8332 39.9998C70.8332 22.9998 56.9998 9.1665 39.9998 9.1665Z" fill="#304D30"/>
<path d="M35.2668 51.9332C34.6001 51.9332 33.9668 51.6665 33.5001 51.1998L24.0668 41.7665C23.1001 40.7998 23.1001 39.1998 24.0668 38.2332C25.0335 37.2665 26.6335 37.2665 27.6001 38.2332L35.2668 45.8998L52.4001 28.7665C53.3668 27.7998 54.9668 27.7998 55.9335 28.7665C56.9001 29.7332 56.9001 31.3332 55.9335 32.2998L37.0335 51.1998C36.5668 51.6665 35.9335 51.9332 35.2668 51.9332Z" fill="#304D30"/>
</svg>
